<svg width="95" height="16" viewBox="0 0 95 16" fill="none" xmlns="http://www.w3.org/2000/svg">
<path d="M0 0H16V16H0V0Z" fill="#CE1141"/>
<path d="M12.6 6.55L8.05 11.1L3.5 6.6L4.95 5.05L6.55 6.6L8.05 5.05L9.55 6.6L11.1 5.05L12.6 6.55Z" fill="white"/>
<path d="M24.26 15V0.999999H27.5C29.88 0.999999 30.98 2.1 30.98 4.48V5.2C30.98 7.6 29.88 8.7 27.5 8.7H25.22V15H24.26ZM25.22 7.84H27.5C29.28 7.84 30.02 7.12 30.02 5.22V4.46C30.02 2.58 29.28 1.84 27.5 1.84H25.22V7.84Z" fill="#CBD5E0"/>
<path d="M35.4123 4.9C37.4723 4.9 38.5723 6.1 38.5723 8.28V10.06H33.1723V11.88C33.1723 13.52 33.9523 14.38 35.4123 14.38C36.9123 14.38 37.6723 13.48 37.6723 11.96V11.86H38.5723V11.94C38.5123 14.02 37.4123 15.2 35.4123 15.2C33.3523 15.2 32.2523 13.98 32.2523 11.82V8.28C32.2523 6.1 33.3523 4.9 35.4123 4.9ZM33.1723 9.28H37.6723V8.2C37.6723 6.56 36.8923 5.7 35.4123 5.7C33.9523 5.7 33.1723 6.58 33.1723 8.2V9.28Z" fill="#CBD5E0"/>
<path d="M44.4945 5.88H42.0545V12.78C42.0545 13.92 42.4545 14.36 43.4145 14.36C43.7545 14.36 44.1145 14.32 44.4945 14.14V14.96C44.0945 15.16 43.7745 15.2 43.3345 15.2C41.8345 15.2 41.1345 14.42 41.1345 12.84V5.88H39.5945V5.1H41.1545L41.2745 2.12H42.0545V5.1H44.4945V5.88Z" fill="#CBD5E0"/>
<path d="M49.2311 4.9C49.5111 4.9 49.7911 4.92 50.0511 5.02V5.94C49.7911 5.84 49.5511 5.8 49.2511 5.8C47.6111 5.8 46.8311 6.98 46.8311 9.44V15H45.9111V5.1H46.6911L46.7311 6.9C47.1311 5.54 47.9911 4.9 49.2311 4.9Z" fill="#CBD5E0"/>
<path d="M54.0756 15.2C52.0156 15.2 50.9156 13.98 50.9156 11.8V8.28C50.9156 6.1 52.0156 4.9 54.0756 4.9C56.0956 4.9 57.2156 6.1 57.2156 8.28V11.8C57.2156 13.98 56.0956 15.2 54.0756 15.2ZM54.0756 14.38C55.5356 14.38 56.2956 13.48 56.2956 11.9V8.2C56.2956 6.6 55.5356 5.7 54.0756 5.7C52.5756 5.7 51.8356 6.6 51.8356 8.2V11.9C51.8356 13.48 52.5756 14.38 54.0756 14.38Z" fill="#CBD5E0"/>
<path d="M61.7364 15.02L58.3764 0.999999H59.3364L62.3764 13.78L65.3964 0.999999H66.2964L62.9564 15.02H61.7364Z" fill="#CBD5E0"/>
<path d="M67.6994 3.3V1.22H68.6194V3.3H67.6994ZM67.6994 15V5.1H68.6194V15H67.6994Z" fill="#CBD5E0"/>
<path d="M73.2983 15.2C71.3583 15.2 70.2183 14.22 70.2183 12.52V12.16H71.0983V12.52C71.0983 13.74 71.8983 14.38 73.2383 14.38C74.5583 14.38 75.3983 13.76 75.3983 12.44C75.3983 11.18 74.3183 10.8 73.0783 10.4C71.6983 9.94 70.3383 9.42 70.3383 7.56C70.3383 5.88 71.4983 4.9 73.2383 4.9C74.9583 4.9 76.1183 5.88 76.1183 7.54V7.7H75.2583V7.54C75.2583 6.32 74.4383 5.7 73.2383 5.7C72.0783 5.7 71.2183 6.32 71.2183 7.56C71.2183 8.8 72.2783 9.18 73.5383 9.6C74.8783 10.04 76.2983 10.56 76.2983 12.46C76.2983 14.2 75.1783 15.2 73.2983 15.2Z" fill="#CBD5E0"/>
<path d="M80.8155 15.2C78.7555 15.2 77.6555 13.98 77.6555 11.8V8.28C77.6555 6.1 78.7555 4.9 80.8155 4.9C82.8355 4.9 83.9555 6.1 83.9555 8.28V11.8C83.9555 13.98 82.8355 15.2 80.8155 15.2ZM80.8155 14.38C82.2755 14.38 83.0355 13.48 83.0355 11.9V8.2C83.0355 6.6 82.2755 5.7 80.8155 5.7C79.3155 5.7 78.5755 6.6 78.5755 8.2V11.9C78.5755 13.48 79.3155 14.38 80.8155 14.38Z" fill="#CBD5E0"/>
<path d="M89.1162 4.9C89.3962 4.9 89.6762 4.92 89.9362 5.02V5.94C89.6762 5.84 89.4363 5.8 89.1363 5.8C87.4963 5.8 86.7163 6.98 86.7163 9.44V15H85.7962V5.1H86.5762L86.6162 6.9C87.0162 5.54 87.8762 4.9 89.1162 4.9Z" fill="#CBD5E0"/>
<path d="M91.612 5V2.604H91.076V2.2H92.6V2.604H92.064V5H91.612Z" fill="#CBD5E0"/>
<path d="M92.8758 5V2.2H93.5198L93.8958 4.256L94.2678 2.2H94.9118V5H94.4798V2.832L94.0678 5H93.6878L93.2758 2.832V5H92.8758Z" fill="#CBD5E0"/>
</svg>
