<svg width="186" height="31" viewBox="0 0 186 31" fill="none" xmlns="http://www.w3.org/2000/svg">
<path d="M180.159 8V4.38202H179V4H181.77V4.38202H180.623V8H180.159ZM182.396 8V4H183.033L184.192 7.29214L185.351 4H186V8H185.571V4.51685L184.366 8H184.007L182.79 4.51685V8H182.396Z" fill="#CCD5E0"/>
<path d="M176.171 8.78906C176.728 8.78906 177.136 8.86324 177.432 9.01159V12.9429C177.098 12.8687 176.69 12.8316 176.282 12.8316C173.723 12.8316 172.388 14.5006 172.388 17.6902V28.0006H168.309V9.15994H171.832L171.906 12.6462C172.537 10.0501 173.983 8.78906 176.171 8.78906Z" fill="#CCD5E0"/>
<path d="M158.633 28.3715C154.516 28.3715 152.18 25.9979 152.18 21.844V15.3165C152.18 11.1256 154.516 8.78906 158.633 8.78906C162.787 8.78906 165.123 11.1256 165.123 15.3165V21.844C165.123 25.9979 162.787 28.3715 158.633 28.3715ZM158.633 24.811C160.302 24.811 161.044 23.7726 161.044 22.1778V14.9827C161.044 13.388 160.302 12.3495 158.633 12.3495C156.964 12.3495 156.259 13.388 156.259 14.9827V22.1778C156.259 23.7726 157.001 24.811 158.633 24.811Z" fill="#CCD5E0"/>
<path d="M143.774 28.3715C139.731 28.3715 137.432 26.2204 137.432 22.6229V22.0294H141.326V22.6599C141.326 24.2547 142.179 24.9965 143.588 24.9965C144.923 24.9965 145.814 24.366 145.814 22.8454C145.814 21.3248 144.367 20.7685 142.513 20.1009C140.139 19.2108 137.654 17.9869 137.654 14.2781C137.654 10.9402 139.694 8.78906 143.551 8.78906C147.149 8.78906 149.485 10.866 149.485 14.2781V14.649H145.665V14.2039C145.665 12.7946 144.923 12.127 143.588 12.127C142.513 12.127 141.585 12.6833 141.585 14.0926C141.585 15.6874 143.032 16.2437 144.998 16.9855C147.371 17.8756 149.856 19.0253 149.856 22.6229C149.856 26.1462 147.779 28.3715 143.774 28.3715Z" fill="#CCD5E0"/>
<path d="M130.533 6.6009V2.07617H134.613V6.6009H130.533ZM130.496 28.0006V9.15997H134.576V28.0006H130.496Z" fill="#CCD5E0"/>
<path d="M117.687 27.9635L112.977 2.03906H117.242L120.617 22.7341L124.066 2.03906H127.997L123.25 27.9635H117.687Z" fill="#CCD5E0"/>
<path d="M104.592 28.3718C100.772 28.3718 98.7324 26.1094 98.7324 22.0668V15.5393C98.7324 11.4968 100.772 9.27148 104.592 9.27148C108.338 9.27148 110.415 11.4968 110.415 15.5393V22.0668C110.415 26.1094 108.338 28.3718 104.592 28.3718ZM104.592 26.8512C107.3 26.8512 108.709 25.1822 108.709 22.2523V15.391C108.709 12.424 107.3 10.755 104.592 10.755C101.811 10.755 100.438 12.424 100.438 15.391V22.2523C100.438 25.1822 101.811 26.8512 104.592 26.8512Z" fill="#CCD5E0"/>
<path d="M94.8675 9.27148C95.3868 9.27148 95.906 9.30857 96.3881 9.49401V11.2001C95.906 11.0146 95.4609 10.9404 94.9046 10.9404C91.8634 10.9404 90.417 13.1286 90.417 17.6904V28.0009H88.7109V9.64236H90.1574L90.2315 12.9803C90.9733 10.4583 92.5681 9.27148 94.8675 9.27148Z" fill="#CCD5E0"/>
<path d="M85.3424 11.0878H80.8177V23.8831C80.8177 25.9971 81.5594 26.813 83.3396 26.813C83.9701 26.813 84.6377 26.7389 85.3424 26.4051V27.9257C84.6006 28.2966 84.0072 28.3707 83.1913 28.3707C80.4097 28.3707 79.1116 26.9243 79.1116 23.9944V11.0878H76.2559V9.64133H79.1487L79.3712 4.11523H80.8177V9.64133H85.3424V11.0878Z" fill="#CCD5E0"/>
<path d="M67.7583 9.27148C71.5784 9.27148 73.6182 11.4968 73.6182 15.5393V18.8402H63.6045V22.2152C63.6045 25.2564 65.0509 26.8512 67.7583 26.8512C70.5399 26.8512 71.9493 25.1822 71.9493 22.3635V22.1781H73.6182V22.3264C73.507 26.1836 71.4671 28.3718 67.7583 28.3718C63.9383 28.3718 61.8984 26.1094 61.8984 22.1039V15.5393C61.8984 11.4968 63.9383 9.27148 67.7583 9.27148ZM63.6045 17.3937H71.9493V15.391C71.9493 12.3498 70.5028 10.755 67.7583 10.755C65.0509 10.755 63.6045 12.3869 63.6045 15.391V17.3937Z" fill="#CCD5E0"/>
<path d="M46.3359 28.0006V2.03906H52.3442C56.7576 2.03906 58.7975 4.0789 58.7975 8.49236V9.82753C58.7975 14.2781 56.7576 16.3179 52.3442 16.3179H48.1162V28.0006H46.3359ZM48.1162 14.7231H52.3442C55.645 14.7231 57.0173 13.388 57.0173 9.86461V8.45527C57.0173 4.96901 55.645 3.59676 52.3442 3.59676H48.1162V14.7231Z" fill="#CCD5E0"/>
<path d="M30.36 0H0V30.36H30.36V0Z" fill="#CE1F43"/>
<path d="M18.0334 12.5443L15.182 9.68945L12.321 12.5443L9.46692 9.68945L6.60938 12.5443L9.46692 15.3956L12.321 18.2347L15.182 21.0923L18.0334 18.2347L20.8875 15.3956L23.7478 12.5443L20.8875 9.68945L18.0334 12.5443Z" fill="white"/>
</svg>
