<svg xmlns="http://www.w3.org/2000/svg" width="30" height="30" fill="none" xmlns:v="https://vecta.io/nano"><path d="M26.496 15.516c-.928 0-1.818-.308-2.475-.855s-1.028-1.291-1.032-2.067V3.059c-.02-.395.055-.79.222-1.16a2.92 2.92 0 0 1 .749-.994 3.59 3.59 0 0 1 1.156-.669C25.552.08 26.02 0 26.493 0s.942.08 1.377.235a3.59 3.59 0 0 1 1.156.669c.327.286.582.624.749.994s.242.765.222 1.16v9.535c-.003.775-.373 1.517-1.029 2.065s-1.544.856-2.471.857z" fill="url(#A)"/><path d="M15.048 22.79c-.93 0-1.822-.309-2.48-.859s-1.027-1.296-1.027-2.074v-9.53c0-.778.37-1.524 1.027-2.074s1.55-.859 2.48-.859 1.822.309 2.48.859 1.027 1.296 1.027 2.074v9.53c0 .778-.369 1.524-1.027 2.074s-1.55.859-2.48.859h0z" fill="url(#B)"/><path d="M3.51 29.425c-.93 0-1.822-.309-2.48-.859S.003 27.271.003 26.493v-9.524a2.5 2.5 0 0 1 .222-1.16c.167-.37.422-.709.749-.994a3.59 3.59 0 0 1 1.156-.669c.435-.155.904-.235 1.377-.235s.942.08 1.377.235a3.59 3.59 0 0 1 1.156.669c.327.286.582.624.749.994a2.5 2.5 0 0 1 .222 1.16v9.524c0 .777-.369 1.522-1.025 2.072s-1.547.859-2.476.861h0z" fill="url(#C)"/><path d="M27.358 29.425V16.931a5.91 5.91 0 0 1-.882.081 5.81 5.81 0 0 1-.875-.081v12.495h1.757zM2.635.126v12.506c.288-.049.581-.077.875-.081a5.81 5.81 0 0 1 .875.081V.126h-1.75zM15.924 30v-5.849a5.09 5.09 0 0 1-1.75 0V30h1.75zM14.174.126v5.849a5.09 5.09 0 0 1 1.75 0V.126h-1.75z" fill="#00007d"/><defs><linearGradient id="A" x1="29.906" y1="15.147" x2="21.236" y2="-11.493" gradientUnits="userSpaceOnUse"><stop offset=".23" stop-color="#00dfa3"/><stop offset="1" stop-color="#00f260"/></linearGradient><linearGradient id="B" x1="211.225" y1="640.439" x2="-201.943" y2="156.888" gradientUnits="userSpaceOnUse"><stop offset=".23" stop-color="#00dfa3"/><stop offset="1" stop-color="#00f260"/></linearGradient><linearGradient id="C" x1="74.838" y1="841.98" x2="-342.116" y2="357.692" gradientUnits="userSpaceOnUse"><stop offset=".23" stop-color="#00dfa3"/><stop offset="1" stop-color="#00f260"/></linearGradient></defs></svg>